<?xml version="1.0" encoding="utf-8"?>
<!-- Generator: Adobe Illustrator 18.0.0, SVG Export Plug-In . SVG Version: 6.00 Build 0)  -->
<!DOCTYPE svg PUBLIC "-//W3C//DTD SVG 1.1//EN" "http://www.w3.org/Graphics/SVG/1.1/DTD/svg11.dtd">
<svg version="1.1" id="svg96" xmlns:svg="http://www.w3.org/2000/svg"
	 xmlns="http://www.w3.org/2000/svg" xmlns:xlink="http://www.w3.org/1999/xlink" x="0px" y="0px" viewBox="0 32 1717 735"
	 enable-background="new 0 32 1717 735" xml:space="preserve">
<polygon id="polygon82" fill="#DCDCDC" points="45.3,226.6 352,48.2 657.4,224.8 351.2,402.8 "/>
<linearGradient id="polygon84_1_" gradientUnits="userSpaceOnUse" x1="-33.8872" y1="52.3951" x2="20.1445" y2="52.3951" gradientTransform="matrix(9.326 0 0 9.326 360.4517 7.324219e-02)">
	<stop  offset="0" style="stop-color:#C4C4C4"/>
	<stop  offset="1" style="stop-color:#2B2B2B"/>
</linearGradient>
<polygon id="polygon84" fill="url(#polygon84_1_)" points="349.8,402.8 349.8,753.9 44.4,580.7 45.3,223.5 "/>
<linearGradient id="polygon88_1_" gradientUnits="userSpaceOnUse" x1="-65.5179" y1="52.4651" x2="95.4763" y2="52.4651" gradientTransform="matrix(9.326 0 0 9.326 360.4517 7.324219e-02)">
	<stop  offset="0" style="stop-color:#FFFFFF"/>
	<stop  offset="0.64" style="stop-color:#595959"/>
</linearGradient>
<polygon id="polygon88" fill="url(#polygon88_1_)" points="349.8,402.8 657.4,224.8 656.6,575.9 349.8,753.9 "/>
<linearGradient id="polygon90_1_" gradientUnits="userSpaceOnUse" x1="-24.486" y1="11.6823" x2="37.0053" y2="44.3756" gradientTransform="matrix(9.326 0 0 9.326 360.4517 7.324219e-02)">
	<stop  offset="0" style="stop-color:#E8E8E8"/>
	<stop  offset="0.59" style="stop-color:#575757"/>
</linearGradient>
<polygon id="polygon90" fill="url(#polygon90_1_)" points="45.3,223.5 345.9,44.7 657.4,224.8 349.8,402.8 "/>
<g>
	<path id="polygon88_3_" fill="#FFFFFF" d="M860.3,500.1"/>
	<g>
		<path fill="#FFFFFF" d="M810.8,557.4l-36.6,0.1L773.9,420l81.2-0.2l0.1,29.8l-44.7,0.1l0.1,26.2l41.2-0.1l0.1,29.8l-41.2,0.1
			L810.8,557.4z"/>
		<path fill="#FFFFFF" d="M945.2,557.1l-7.1-14.1l-0.8,0c-4.9,6.2-10,10.4-15.1,12.6c-5.1,2.3-11.8,3.4-19.9,3.4
			c-10,0-17.9-3-23.7-9c-5.8-6-8.7-14.5-8.7-25.4c0-11.3,3.9-19.8,11.8-25.4c7.9-5.6,19.3-8.7,34.3-9.4l17.8-0.6l0-1.5
			c0-8.8-4.3-13.2-13-13.1c-7.8,0-17.6,2.7-29.6,8l-10.7-24.2c12.4-6.4,28.1-9.6,47-9.7c13.7,0,24.2,3.3,31.7,10.1
			c7.5,6.8,11.3,16.2,11.3,28.4l0.1,69.8L945.2,557.1z M917.9,533.1c4.4,0,8.3-1.4,11.4-4.3c3.2-2.8,4.7-6.5,4.7-11l0-8.3l-8.5,0.4
			c-12.1,0.5-18.1,4.9-18.1,13.4C907.5,529.9,910.9,533.1,917.9,533.1z"/>
		<path fill="#FFFFFF" d="M1044.3,558.8c-17.4,0-30.6-4.6-39.6-14c-9-9.4-13.5-22.9-13.6-40.5c0-17.7,4.8-31.4,14.5-41.1
			c9.7-9.7,23.5-14.6,41.4-14.6c12.3,0,24,2.6,34.9,8l-10.8,27.2c-4.5-1.9-8.6-3.5-12.3-4.6c-3.8-1.2-7.7-1.7-11.8-1.7
			c-6,0-10.6,2.3-13.8,7c-3.3,4.6-4.9,11.2-4.9,19.7c0,17,6.3,25.6,18.9,25.5c10.8,0,21.1-3.2,31-9.5l0.1,29.2
			C1068.9,555.7,1057.5,558.8,1044.3,558.8z"/>
		<path fill="#FFFFFF" d="M1150.9,558.6c-17.7,0-31.5-4.7-41.3-14.1c-9.8-9.4-14.8-22.8-14.8-40.3c0-18,4.5-31.8,13.6-41.4
			c9.1-9.6,22-14.5,38.9-14.5c16,0,28.4,4.1,37.2,12.5c8.8,8.3,13.2,20.4,13.2,36.1l0,16.4l-65.7,0.1c0.3,6,2.4,10.6,6.6,14
			c4.1,3.4,9.7,5.1,16.8,5c6.5,0,12.4-0.6,17.8-1.9c5.4-1.2,11.3-3.3,17.6-6.3l0.1,26.4c-5.8,3-11.7,5-17.8,6.1
			C1166.7,558,1159.4,558.6,1150.9,558.6z M1148.6,473.4c-4.3,0-7.9,1.4-10.8,4.1c-2.9,2.7-4.6,7-5.1,12.8l31.6-0.1
			c-0.1-5.1-1.6-9.2-4.4-12.3C1157,474.9,1153.3,473.4,1148.6,473.4z"/>
		<path fill="#FFFFFF" d="M1270.7,529.4c4.9,0,10.9-1.2,17.8-3.7l0.1,26.8c-4.9,2.1-9.7,3.7-14.1,4.6c-4.5,0.9-9.7,1.4-15.7,1.4
			c-12.3,0-21.3-3-26.7-9c-5.5-6-8.2-15.3-8.2-27.9l-0.1-43.9l-12.9,0l0-14.9l16.3-11.6l9.5-22.4l24.1,0l0,21.3l26.1-0.1l0.1,27.5
			l-26.1,0.1l0.1,41.5C1260.7,525.9,1264,529.4,1270.7,529.4z"/>
	</g>
	<path fill="#FFFFFF" d="M835.1,390.4l-51.5-126.8l-0.8,0c0.5,7.8,0.8,15.7,0.8,23.9l0.2,103l-9.2,0l-0.3-137.4l14.9,0l48.9,120.8
		l0.6,0l48.5-121l14.5,0l0.3,137.4l-9.7,0L892,286.1c0-7.3,0.3-14.8,1.1-22.6l-0.8,0l-51.2,126.8L835.1,390.4z"/>
	<path fill="#FFFFFF" d="M973.7,392c-14.9,0-26.4-4.5-34.8-13.7c-8.3-9.1-12.5-21.9-12.5-38.4c0-16.3,4-29.4,12-39.2
		c8-9.8,18.8-14.7,32.4-14.8c12,0,21.5,4.2,28.5,12.5c7,8.4,10.5,19.8,10.5,34.2l0,7.5l-73.6,0.1c0.2,14,3.4,24.7,9.9,32.1
		c6.4,7.4,15.6,11.1,27.6,11c5.8,0,11-0.4,15.4-1.3c4.4-0.8,10-2.6,16.8-5.3l0,8.5c-5.8,2.5-11.1,4.2-16,5.2
		C985,391.5,979.6,392,973.7,392z M970.8,294.2c-9.8,0-17.7,3.3-23.7,9.8c-5.9,6.5-9.4,15.9-10.4,28.1l63.2-0.1
		c0-11.8-2.6-21.1-7.8-27.8C987,297.5,979.9,294.2,970.8,294.2z"/>
	<path fill="#FFFFFF" d="M1065,383.5c5.9,0,11-0.5,15.4-1.5l0,7.5c-4.5,1.5-9.7,2.3-15.6,2.3c-9,0-15.7-2.4-20-7.2
		c-4.3-4.8-6.5-12.4-6.5-22.7l-0.1-66l-15.1,0l0-5.5l15.1-4.3l4.7-23.1l4.8,0l0,24.7l30-0.1l0,8.1l-30,0.1l0.1,64.7
		c0,7.8,1.4,13.6,4.2,17.4C1054.8,381.7,1059.1,383.5,1065,383.5z"/>
	<path fill="#FFFFFF" d="M1164.6,389.7l-2.4-16.2l-0.8,0c-5.1,6.6-10.4,11.3-15.8,14c-5.4,2.7-11.8,4.1-19.2,4.1
		c-10,0-17.8-2.5-23.4-7.7c-5.6-5.1-8.4-12.2-8.4-21.3c0-10,4.1-17.7,12.4-23.2c8.3-5.5,20.3-8.5,36-8.8l19.5-0.6l0-6.8
		c0-9.7-2-17-6-22c-4-4.9-10.3-7.4-19.1-7.4c-9.5,0-19.3,2.7-29.4,8l-3.5-8.1c11.2-5.3,22.3-7.9,33.3-8c11.2,0,19.6,2.9,25.2,8.7
		c5.6,5.8,8.3,14.9,8.4,27.2l0.1,68L1164.6,389.7z M1127,383.2c10.9,0,19.5-3.2,25.8-9.4c6.3-6.2,9.4-14.9,9.4-26l0-10.1l-17.9,0.8
		c-14.3,0.7-24.6,3-30.7,6.8c-6.1,3.8-9.1,9.7-9.1,17.7c0,6.4,2,11.4,5.9,14.9C1114.3,381.5,1119.8,383.2,1127,383.2z"/>
	<path fill="#FFFFFF" d="M1213.8,389.6l-9.3,0l-0.3-146.3l9.3,0L1213.8,389.6z"/>
	<path fill="#FFFFFF" d="M1342.9,389.4l-11.8,0l-52.9-72.5l-18.3,16.2l0.1,56.4l-9.6,0l-0.3-137.4l9.6,0l0.1,71.4l15.2-15.3
		l53.8-56.3l12.2,0l-56.2,58.2L1342.9,389.4z"/>
	<path fill="#FFFFFF" d="M1367.8,287.2l0.1,66.2c0,10.3,2.2,17.7,6.5,22.4c4.3,4.7,11,7,20.1,7c12.2,0,21.1-3.1,26.8-9.3
		c5.7-6.2,8.6-16.2,8.5-30l-0.1-56.4l9.2,0l0.2,102.2l-7.9,0l-1.7-14.1l-0.6,0c-6.6,10.7-18.4,16-35.4,16
		c-23.3,0-34.9-12.4-34.9-37.3l-0.1-66.7L1367.8,287.2z"/>
	<path fill="#FFFFFF" d="M1519.5,284.9c14.3,0,25.1,4.5,32.3,13.4c7.3,9,10.9,22.1,10.9,39.4c0,17-3.7,30.1-11.3,39.3
		c-7.6,9.2-18.3,13.9-32.1,13.9c-7.3,0-13.8-1.5-19.7-4.5c-5.8-3-10.4-7.2-13.8-12.8l-0.8,0l-2.6,15.4l-5.8,0l-0.3-146.3l9.3,0
		l0.1,36.8c0,5.5-0.1,10.6-0.3,15.2l-0.3,8l0.7,0c3.9-6.1,8.5-10.7,14-13.6C1505.2,286.4,1511.8,284.9,1519.5,284.9z M1519.3,293.4
		c-12,0-20.6,3.5-25.8,10.4c-5.2,6.9-7.8,18.3-7.7,34.1l0,1.6c0,15.4,2.8,26.5,8.2,33.2c5.4,6.7,13.9,10,25.4,10
		c11.2,0,19.5-3.9,25.2-11.8c5.6-7.8,8.4-18.9,8.4-33.3C1552.8,308.1,1541.6,293.3,1519.3,293.4z"/>
	<path fill="#FFFFFF" d="M1635.4,390.7c-14.9,0-26.4-4.5-34.8-13.7c-8.3-9.1-12.5-21.9-12.5-38.4c0-16.3,4-29.4,12-39.2
		c8-9.8,18.8-14.7,32.4-14.8c12,0,21.5,4.2,28.5,12.5c7,8.4,10.5,19.8,10.5,34.2l0,7.5l-73.6,0.1c0.2,14,3.4,24.7,9.9,32.1
		c6.4,7.4,15.6,11.1,27.6,11c5.8,0,10.9-0.4,15.4-1.3c4.4-0.8,10-2.6,16.8-5.3l0,8.5c-5.8,2.5-11.1,4.2-16,5.2
		S1641.3,390.7,1635.4,390.7z M1632.5,293c-9.8,0-17.7,3.3-23.7,9.8c-5.9,6.5-9.4,15.9-10.4,28.1l63.2-0.1c0-11.8-2.6-21.1-7.8-27.8
		C1648.7,296.3,1641.6,292.9,1632.5,293z"/>
</g>
</svg>
